# xmcd
#
# Track frame offsets:
#	150
#	22490
#	23806
#	55180
#	58220
#	83631
#	125751
#	127367
#	128754
#	152375
#	183644
#	210196
#	212026
#
# Disc length: 3178 seconds
#
# Revision: 0
# Processed by: cddbd v1.5.2PL0 Copyright (c) Steve Scherf et al.
# Submitted via: audiograbber 1.83.01
#
DISCID=be0c680d
DTITLE=Terrence Ngassa and Dominic Quaye - WND JAZZ 2008
DYEAR=2008
DGENRE=Jazz
TTITLE0=Alexander's Ragtime
TTITLE1=Ansage
TTITLE2=Mack the Knife
TTITLE3=Ansage
TTITLE4=Jada
TTITLE5=Nobody knows the Trouble I've seen
TTITLE6=Ansage
TTITLE7=Ansage
TTITLE8=Blueberryhill
TTITLE9=All of me
TTITLE10=C - Jam Blues
TTITLE11=Ansage
TTITLE12=What a wonderful world
EXTD=
EXTT0=
EXTT1=
EXTT2=
EXTT3=
EXTT4=
EXTT5=
EXTT6=
EXTT7=
EXTT8=
EXTT9=
EXTT10=
EXTT11=
EXTT12=
PLAYORDER=
